HIERARCHY
ROOT Hips
{
	OFFSET -1.602300 6.242603 43.997101
	CHANNELS 6 Xposition Yposition Zposition Zrotation Xrotation Yrotation
	JOINT Chest
	{
		OFFSET -0.204900 1.598101 7.917301
		CHANNELS 6 Xposition Yposition Zposition Zrotation Xrotation Yrotation
		JOINT Chest2
		{
			OFFSET 0.000000 0.000000 3.404099
			CHANNELS 6 Xposition Yposition Zposition Zrotation Xrotation Yrotation
			JOINT Neck
			{
				OFFSET 0.000000 0.000000 7.928600
				CHANNELS 6 Xposition Yposition Zposition Zrotation Xrotation Yrotation
				JOINT Head
				{
					OFFSET 0.000000 0.000000 2.173897
					CHANNELS 6 Xposition Yposition Zposition Zrotation Xrotation Yrotation
					End Site
					{
						OFFSET 0.000000 0.000001 10.404503
					}
				}
			}
			JOINT LeftCollar
			{
				OFFSET 2.833800 -1.396299 4.843300
				CHANNELS 6 Xposition Yposition Zposition Zrotation Xrotation Yrotation
				JOINT LeftShoulder
				{
					OFFSET 4.363600 0.000000 0.000000
					CHANNELS 6 Xposition Yposition Zposition Zrotation Xrotation Yrotation
					JOINT LeftElbow
					{
						OFFSET 0.000000 -0.000001 -10.306900
						CHANNELS 6 Xposition Yposition Zposition Zrotation Xrotation Yrotation
						JOINT LeftWrist
						{
							OFFSET 0.000000 -0.000001 -12.404900
							CHANNELS 6 Xposition Yposition Zposition Zrotation Xrotation Yrotation
							End Site
							{
								OFFSET 0.000000 0.000000 -2.173901
							}
						}
					}
				}
			}
			JOINT RightCollar
			{
				OFFSET -2.354800 -1.897200 5.063099
				CHANNELS 6 Xposition Yposition Zposition Zrotation Xrotation Yrotation
				JOINT RightShoulder
				{
					OFFSET -4.375800 0.000000 0.000000
					CHANNELS 6 Xposition Yposition Zposition Zrotation Xrotation Yrotation
					JOINT RightElbow
					{
						OFFSET 0.000000 -0.000001 -10.005001
						CHANNELS 6 Xposition Yposition Zposition Zrotation Xrotation Yrotation
						JOINT RightWrist
						{
							OFFSET 0.000000 -0.000001 -13.174900
							CHANNELS 6 Xposition Yposition Zposition Zrotation Xrotation Yrotation
							End Site
							{
								OFFSET 0.000000 0.000000 -2.173901
							}
						}
					}
				}
			}
		}
	}
	JOINT LeftHip
	{
		OFFSET 2.240600 0.386800 -2.614101
		CHANNELS 6 Xposition Yposition Zposition Zrotation Xrotation Yrotation
		JOINT LeftKnee
		{
			OFFSET 0.000000 -0.000001 -18.592899
			CHANNELS 6 Xposition Yposition Zposition Zrotation Xrotation Yrotation
			JOINT LeftAnkle
			{
				OFFSET 0.000000 -0.000001 -18.765800
				CHANNELS 6 Xposition Yposition Zposition Zrotation Xrotation Yrotation
				End Site
				{
					OFFSET 0.000000 -8.655000 0.000000
				}
			}
		}
	}
	JOINT RightHip
	{
		OFFSET -2.014900 -0.220900 -2.615898
		CHANNELS 6 Xposition Yposition Zposition Zrotation Xrotation Yrotation
		JOINT RightKnee
		{
			OFFSET 0.000000 -0.000001 -18.633900
			CHANNELS 6 Xposition Yposition Zposition Zrotation Xrotation Yrotation
			JOINT RightAnkle
			{
				OFFSET 0.000000 -0.000001 -18.285101
				CHANNELS 6 Xposition Yposition Zposition Zrotation Xrotation Yrotation
				End Site
				{
					OFFSET 0.000000 -7.524500 0.000000
				}
			}
		}
	}
}
MOTION
Frames: 6
Frame Time: 0.041667
-6.143099 25.534807 9.021507 6.080856 1.340222 3.395355 -0.204901 1.598103 7.917311 -6.460894 -3.984314 -1.356832 -0.000000 0.000008 3.404101 -1.381483 -15.924572 -1.902168 0.000000 -0.000002 7.928601 5.280912 18.655224 -4.203534 0.000000 0.000002 2.173903 0.626015 -3.903775 2.315608 2.833796 -1.396303 4.843301 53.175710 -28.381386 -39.303565 4.363602 0.000006 -0.000007 -103.821136 -50.888007 -129.353510 -0.000000 0.000004 -10.306901 609.416525 -157.857174 560.488383 0.000005 0.000005 -12.404902 -326.350482 356.815229 -327.460197 -2.354800 -1.897201 5.063098 3.389833 10.623336 -1.629101 -4.375799 0.000003 -0.000019 74.642595 -6.748912 163.611622 0.000001 0.000005 -10.004995 -609.130532 -170.549878 -559.006287 -0.000004 0.000006 -13.174889 -8.650450 -21.171891 336.393374 2.240597 0.386801 -2.614101 137.304260 -31.100669 103.921356 0.000001 0.000001 -18.592896 -114.840492 31.904944 132.136812 0.000000 -0.000001 -18.765799 9.862760 36.272246 -4.267412 -2.014896 -0.220897 -2.615898 -116.543941 -21.364239 -93.621635 0.000000 0.000002 -18.633886 177.247753 29.437968 -179.041429 -0.000007 -0.000005 -18.285086 -8.644947 35.000457 -214.511079
-6.144000 25.533100 9.019802 6.085301 1.341142 3.377983 -0.204901 1.598103 7.917314 -6.462063 -3.952388 -1.355053 0.000000 0.000004 3.404100 -1.355025 -15.925670 -1.898183 -0.000001 0.000001 7.928596 5.312304 18.646036 -4.233646 0.000000 -0.000002 2.173900 0.584593 -3.945003 2.349795 2.833791 -1.396302 4.843297 53.386340 -28.410008 -39.070861 4.363599 0.000004 -0.000012 -104.019410 -50.803791 -129.403726 -0.000003 0.000003 -10.306893 609.623343 -157.889631 560.595699 0.000006 0.000004 -12.404893 -326.523532 356.814000 -327.428586 -2.354803 -1.897199 5.063105 3.081305 10.483617 -1.464840 -4.375799 0.000005 -0.000013 75.250742 -6.700831 163.480523 0.000002 0.000002 -10.004992 -608.837380 -170.663150 -558.777776 -0.000002 0.000003 -13.174894 -8.592885 -21.302117 336.366763 2.240596 0.386804 -2.614100 137.293933 -31.126572 103.903870 0.000001 0.000001 -18.592890 -114.803090 31.918908 132.141634 -0.000000 0.000001 -18.765799 9.847803 36.277853 -4.293121 -2.014899 -0.220894 -2.615899 -116.556017 -21.366158 -93.643683 0.000001 0.000003 -18.633890 177.257684 29.435318 -179.046442 -0.000006 -0.000006 -18.285086 -8.646570 34.997049 -214.502829
-6.144899 25.531603 9.018002 6.091053 1.338711 3.360648 -0.204901 1.598103 7.917310 -6.464440 -3.911826 -1.351086 -0.000000 0.000005 3.404103 -1.327797 -15.928590 -1.894010 0.000000 -0.000001 7.928605 5.348754 18.636535 -4.271257 -0.000000 0.000001 2.173895 0.551580 -3.975765 2.394011 2.833798 -1.396302 4.843301 53.614495 -28.448064 -38.827525 4.363603 0.000005 -0.000007 -104.250878 -50.723806 -129.477355 -0.000002 0.000001 -10.306911 609.775301 -157.916241 560.691868 0.000004 0.000004 -12.404895 -326.653742 356.824600 -327.399162 -2.354800 -1.897201 5.063103 2.748413 10.303906 -1.291053 -4.375798 0.000003 -0.000016 75.894706 -6.644473 163.302870 0.000002 0.000003 -10.005000 -608.587504 -170.793333 -558.541834 -0.000003 0.000001 -13.174900 -8.457044 -21.455473 336.347611 2.240596 0.386804 -2.614099 137.282363 -31.152329 103.888502 0.000002 -0.000002 -18.592892 -114.770209 31.931169 132.144175 -0.000001 -0.000000 -18.765799 9.839413 36.287040 -4.305661 -2.014899 -0.220897 -2.615900 -116.568079 -21.370615 -93.661476 -0.000000 0.000001 -18.633884 177.267219 29.432388 -179.051879 -0.000006 -0.000007 -18.285084 -8.648640 34.994163 -214.495561
-6.145501 25.530302 9.016209 6.095709 1.334624 3.342606 -0.204901 1.598103 7.917305 -6.465621 -3.869764 -1.344554 0.000000 0.000000 3.404099 -1.299293 -15.930745 -1.889475 -0.000000 -0.000001 7.928595 5.390299 18.628190 -4.313916 -0.000000 0.000000 2.173901 0.633477 -3.868754 1.975401 2.833792 -1.396302 4.843303 53.786568 -28.465478 -38.628613 4.363599 0.000005 -0.000004 -104.426291 -50.666521 -129.541928 -0.000004 0.000003 -10.306896 609.843385 -157.913359 560.758968 0.000003 0.000005 -12.404902 -326.701718 356.850555 -327.375529 -2.354801 -1.897202 5.063098 2.570674 10.202896 -1.242083 -4.375799 0.000003 -0.000012 76.277422 -6.554029 163.213039 0.000003 0.000005 -10.004996 -608.414892 -170.861267 -558.361189 -0.000005 0.000006 -13.174889 -8.363124 -21.599918 336.325427 2.240597 0.386802 -2.614103 137.271940 -31.174295 103.874664 -0.000001 -0.000002 -18.592890 -114.745074 31.942090 132.146566 -0.000001 -0.000000 -18.765800 9.829907 36.294925 -4.300060 -2.014895 -0.220897 -2.615901 -116.577874 -21.380790 -93.676434 0.000000 0.000003 -18.633884 177.273489 29.429687 -179.057439 -0.000006 -0.000005 -18.285086 -8.650406 34.992077 -214.490152
-6.146100 25.529305 9.014515 6.097174 1.334560 3.327201 -0.204901 1.598104 7.917311 -6.464000 -3.837403 -1.344333 0.000000 -0.000000 3.404101 -1.269765 -15.931138 -1.884536 -0.000001 0.000001 7.928600 5.428496 18.624290 -4.344434 0.000000 0.000003 2.173896 0.636674 -3.863270 1.972277 2.833792 -1.396301 4.843305 53.884947 -28.450390 -38.480722 4.363596 0.000005 -0.000013 -104.535287 -50.636919 -129.604178 -0.000002 0.000001 -10.306904 609.814917 -157.891448 560.794649 0.000005 0.000004 -12.404894 -326.664835 356.880717 -327.355886 -2.354801 -1.897198 5.063098 2.597578 10.212726 -1.318396 -4.375799 0.000004 -0.000014 76.307755 -6.415450 163.264949 0.000003 0.000005 -10.004988 -608.365277 -170.893696 -558.248409 -0.000007 0.000005 -13.174898 -8.324184 -21.724136 336.299718 2.240596 0.386799 -2.614103 137.266749 -31.192466 103.867370 0.000002 -0.000001 -18.592894 -114.726045 31.951615 132.149721 0.000001 0.000001 -18.765799 9.819517 36.298364 -4.283922 -2.014898 -0.220898 -2.615897 -116.585319 -21.392448 -93.693680 -0.000001 0.000001 -18.633884 177.273940 29.427904 -179.062275 -0.000007 -0.000002 -18.285084 -8.651766 34.989877 -214.484701
-6.146599 25.528605 9.012707 6.095210 1.341494 3.312307 -0.204900 1.598097 7.917306 -6.459264 -3.820964 -1.348891 -0.000001 0.000005 3.404097 -1.237871 -15.928500 -1.879002 0.000000 -0.000003 7.928601 5.461357 18.623966 -4.361152 0.000000 -0.000000 2.173898 0.653691 -3.846574 1.951725 2.833799 -1.396300 4.843298 53.872612 -28.389452 -38.410347 4.363602 0.000002 -0.000006 -104.539508 -50.647461 -129.655623 0.000001 0.000001 -10.306897 609.810600 -157.895464 560.845247 0.000007 0.000005 -12.404894 -326.281688 356.894705 -327.880280 -2.354801 -1.897200 5.063100 2.844601 10.340678 -1.491624 -4.375799 -0.000000 -0.000016 75.954483 -6.264816 163.457137 -0.000000 0.000004 -10.004995 -608.537507 -170.919228 -558.224148 -0.000003 0.000005 -13.174899 -8.264048 -21.824068 336.256551 2.240597 0.386797 -2.614102 137.266885 -31.202087 103.866284 0.000000 -0.000003 -18.592890 -114.715459 31.962195 132.156087 -0.000002 0.000001 -18.765799 9.810749 36.301011 -4.270523 -2.014899 -0.220903 -2.615899 -116.591821 -21.405075 -93.718043 0.000000 0.000001 -18.633886 177.269459 29.426941 -179.066837 -0.000006 -0.000006 -18.285086 -8.653069 34.987422 -214.478540
